<svg xmlns="http://www.w3.org/2000/svg" width="52" height="50" fill="none" viewBox="0 0 52 50">
            <path fill="#fff" d="M51.127 21.959l-4.393-4.003V4.684a1.53 1.53 0 0 0-1.53-1.53H34.63a1.53 1.53 0 0 0-1.529 1.53v.85L27.796.7a2.654 2.654 0 0 0-3.592 0L.874 21.959a2.65 2.65 0 0 0-.691 2.934 2.65 2.65 0 0 0 2.486 1.703h3.727v21.3c0 .844.684 1.53 1.529 1.53h12.788a1.53 1.53 0 0 0 1.53-1.53V34.963h7.515v12.933c0 .845.684 1.53 1.529 1.53h12.788a1.53 1.53 0 0 0 1.529-1.53v-21.3h3.727a2.65 2.65 0 0 0 2.486-1.703 2.65 2.65 0 0 0-.69-2.934zm-7.053 1.579a1.53 1.53 0 0 0-1.529 1.53v21.299h-9.729V33.434a1.53 1.53 0 0 0-1.529-1.529H20.713a1.53 1.53 0 0 0-1.53 1.53v12.932h-9.73v-21.3a1.53 1.53 0 0 0-1.528-1.53H3.68l22.32-20.336 7.6 6.926a1.53 1.53 0 0 0 2.559-1.13V6.212h7.516V18.63c0 .43.18.84.499 1.13l4.144 3.777h-4.245z"/>
        </svg>