<svg xmlns="http://www.w3.org/2000/svg" width="64" height="64" fill="none" viewBox="0 0 64 64">
    <path fill="#C8414B" d="M0 48.172a4.793 4.793 0 0 0 4.793 4.794h54.414A4.793 4.793 0 0 0 64 48.172v-4.034H0v4.034zM59.207 11.034H4.793A4.793 4.793 0 0 0 0 15.828v4.034h64v-4.034a4.793 4.793 0 0 0-4.793-4.793z"/>
    <path fill="#FFD250" d="M64 19.863H0v24.276h64V19.862z"/>
    <path fill="#C8414B" d="M27.035 32l.935-4.21a.62.62 0 0 0-.606-.756h-.659a.621.621 0 0 0-.606.756l.936 4.21z"/>
    <path fill="#F5F5F5" d="M28.138 29.793h-2.207v9.378h2.207v-9.378z"/>
    <path fill="#FAB446" d="M28.689 28.69h-3.31v1.104h3.31V28.69z"/>
    <path fill="#C8414B" d="M28.69 32h-5.517v1.103h5.517V32zM28.69 36.414l-3.31-1.104v-1.103l3.31 1.103v1.104zM10.483 32l.935-4.21a.62.62 0 0 0-.606-.756h-.659a.621.621 0 0 0-.606.756l.936 4.21z"/>
    <path fill="#F5F5F5" d="M14.345 28.69c-.61 0-1.104.494-1.104 1.103v7.172c0 1.341 1.252 3.863 5.518 3.863s5.517-2.522 5.517-3.863v-7.172c0-.61-.494-1.103-1.104-1.103h-8.827z"/>
    <path fill="#C8414B" d="M18.759 34.207H13.24v-4.414c0-.61.495-1.103 1.104-1.103h4.414v5.517zM18.759 34.207h5.517v2.758a2.759 2.759 0 1 1-5.517 0v-2.758z"/>
    <path fill="#FAB446" d="M13.242 34.207h5.517v2.758a2.759 2.759 0 1 1-5.518 0v-2.758z"/>
    <path fill="#C8414B" d="M17.655 39.16v-4.953h-1.104v5.462a2.73 2.73 0 0 0 1.104-.509zM15.448 39.669v-5.462h-1.103v4.953c.322.244.693.425 1.103.509z"/>
    <path fill="#FFB441" d="M17.655 32h-3.31v1.103h3.31V32z"/>
    <path fill="#FAB446" d="M17.655 29.793h-3.31v1.103h3.31v-1.104z"/>
    <path fill="#FAB446" d="M17.103 30.449h-2.207v1.999h2.207v-2z"/>
    <path fill="#F5F5F5" d="M11.585 29.793H9.38v9.378h2.207v-9.378z"/>
    <path fill="#FAB446" d="M12.138 38.621h-3.31v1.104h3.31V38.62zM12.138 28.69h-3.31v1.104h3.31V28.69z"/>
    <path fill="#5064AA" d="M12.69 39.724H8.276v1.103h4.414v-1.103z"/>
    <path fill="#FAB446" d="M29.241 38.621h-3.31v1.104h3.31V38.62z"/>
    <path fill="#5064AA" d="M29.241 39.724h-4.414v1.103h4.414v-1.103z"/>
    <path fill="#FAB446" d="M22.07 27.586h-6.621v1.104h6.62v-1.104z"/>
    <path fill="#FFB441" d="M19.311 24.276h-1.104v3.31h1.104v-3.31z"/>
    <path fill="#F5F5F5" d="M17.655 25.931A1.657 1.657 0 0 1 16 24.276c0-.913.742-1.655 1.655-1.655s1.655.742 1.655 1.655-.742 1.655-1.655 1.655zm0-2.207a.552.552 0 1 0 0 1.104.552.552 0 0 0 0-1.104z"/>
    <path fill="#F5F5F5" d="M19.862 25.931a1.657 1.657 0 0 1-1.655-1.655c0-.913.742-1.655 1.655-1.655s1.655.742 1.655 1.655-.742 1.655-1.655 1.655zm0-2.207a.552.552 0 1 0 .001 1.104.552.552 0 0 0 0-1.104z"/>
    <path fill="#F5F5F5" d="M22.07 27.035a1.657 1.657 0 0 1-1.656-1.656c0-.912.743-1.655 1.655-1.655.913 0 1.655.743 1.655 1.655 0 .913-.742 1.655-1.655 1.655zm0-2.207a.552.552 0 1 0 0 1.104.552.552 0 0 0 0-1.104zM15.448 27.035a1.657 1.657 0 0 1-1.655-1.656c0-.912.743-1.655 1.655-1.655.913 0 1.655.743 1.655 1.655 0 .913-.742 1.655-1.655 1.655zm0-2.207a.552.552 0 1 0 .001 1.104.552.552 0 0 0 0-1.104z"/>
    <path fill="#FAB446" d="M22.07 36.414v.551a.552.552 0 0 1-1.104 0v-.551h1.103zm1.102-1.104h-3.31v1.655c0 .913.743 1.656 1.655 1.656.913 0 1.655-.743 1.655-1.656V35.31z"/>
    <path fill="#FFA0D2" d="M21.517 33.103c-.61 0-1.103-.494-1.103-1.103v-1.104a1.104 1.104 0 0 1 2.207 0V32c0 .61-.494 1.103-1.104 1.103z"/>
    <path fill="#5064AA" d="M18.759 35.861a1.655 1.655 0 1 0 0-3.31 1.655 1.655 0 0 0 0 3.31z"/>
    <path fill="#FAB446" d="M19.311 22.069h-1.104v3.31h1.104v-3.31z"/>
    <path fill="#C8414B" d="M15.448 27.586l-1.103-1.103.646-.647a5.328 5.328 0 0 1 7.535 0l.646.647-1.103 1.103h-6.62z"/>
    <path fill="#FFD250" d="M18.759 27.034a.552.552 0 1 0 0-1.103.552.552 0 0 0 0 1.103zM16.551 27.034a.552.552 0 1 0 0-1.103.552.552 0 0 0 0 1.103zM20.965 27.034a.552.552 0 1 0 0-1.103.552.552 0 0 0 0 1.103z"/>
    <path fill="#C8414B" d="M14.345 32H8.827v1.103h5.518V32zM8.828 36.414l3.31-1.104v-1.103l-3.31 1.103v1.104z"/>
</svg>
