<svg xmlns="http://www.w3.org/2000/svg" width="64" height="64" fill="none" viewBox="0 0 64 64">
    <path fill="#41479B" d="M59.207 11.034H4.793A4.793 4.793 0 0 0 0 15.828v32.344a4.793 4.793 0 0 0 4.793 4.794h54.414A4.793 4.793 0 0 0 64 48.172V15.828a4.793 4.793 0 0 0-4.793-4.793z"/>
    <path fill="#F5F5F5" d="M63.934 15.035c-.378-2.27-2.35-4-4.727-4H57.96L37.517 24.427V11.034H26.483v13.394L6.04 11.034H4.793a4.794 4.794 0 0 0-4.727 4.001L17.54 26.483H0v11.034h17.539L.066 48.965c.378 2.27 2.35 4 4.727 4H6.04l20.443-13.393v13.393h11.034V39.572L57.96 52.965h1.247a4.794 4.794 0 0 0 4.727-4L46.46 37.517H64V26.483H46.461l17.473-11.448z"/>
    <path fill="#FF4B55" d="M35.31 11.034h-6.62V28.69H0v6.62h28.69v17.655h6.62V35.31H64v-6.62H35.31V11.035z"/>
    <path fill="#FF4B55" d="M3.1 52.657l23.322-15.14H22.37L1.153 51.29A4.799 4.799 0 0 0 3.1 52.656zM43.299 37.517h-4.054l22.59 14.663a4.816 4.816 0 0 0 1.535-1.634L43.3 37.517zM.506 13.684l19.716 12.799h4.054L1.934 11.98c-.6.447-1.09 1.03-1.428 1.704zM41.57 26.483l21.255-13.797a4.801 4.801 0 0 0-1.962-1.358L37.517 26.483h4.054z"/>
</svg>
